<svg width="114" height="108" viewBox="0 0 114 108" fill="none" xmlns="http://www.w3.org/2000/svg">
<path d="M102.545 0H24.4424C18.1261 0 12.9873 5.12231 12.9873 11.4185V12.9459H11.4551C5.13871 12.9459 0 18.0682 0 24.3644V77.0451C0 83.3413 5.13871 88.4636 11.4551 88.4636H17.1194L24.0372 106.909C24.2543 107.488 24.773 107.901 25.3873 107.985C25.4633 107.995 25.539 108 25.6144 108C26.1487 108 26.6571 107.746 26.9764 107.308L40.7066 88.4636H89.5576C95.874 88.4636 101.013 83.3413 101.013 77.0451V75.5177H102.545C108.861 75.5177 114 70.3954 114 64.0992V11.4185C114 5.12231 108.861 0 102.545 0ZM97.6456 77.0451C97.6456 81.4906 94.0173 85.1073 89.5576 85.1073H39.8487C39.3096 85.1073 38.8033 85.3646 38.4865 85.7993L26.0936 102.808L19.8643 86.1978C19.6184 85.542 18.9898 85.1073 18.2874 85.1073H11.4551C6.99535 85.1073 3.36709 81.4906 3.36709 77.0451V24.3644C3.36709 19.9189 6.99535 16.3022 11.4551 16.3022H89.5576C94.0173 16.3022 97.6456 19.9189 97.6456 24.3644V77.0451ZM110.633 64.0992C110.633 68.5447 107.005 72.1614 102.545 72.1614H101.013V24.3644C101.013 18.0682 95.874 12.9459 89.5576 12.9459H16.3544V11.4185C16.3544 6.97303 19.9827 3.35634 24.4424 3.35634H102.545C107.005 3.35634 110.633 6.97303 110.633 11.4185V64.0992Z" fill="url(#paint0_linear_17137_3526)"/>
<path d="M102.545 0H24.4424C18.1261 0 12.9873 5.12231 12.9873 11.4185V12.9459H11.4551C5.13871 12.9459 0 18.0682 0 24.3644V77.0451C0 83.3413 5.13871 88.4636 11.4551 88.4636H17.1194L24.0372 106.909C24.2543 107.488 24.773 107.901 25.3873 107.985C25.4633 107.995 25.539 108 25.6144 108C26.1487 108 26.6571 107.746 26.9764 107.308L40.7066 88.4636H89.5576C95.874 88.4636 101.013 83.3413 101.013 77.0451V75.5177H102.545C108.861 75.5177 114 70.3954 114 64.0992V11.4185C114 5.12231 108.861 0 102.545 0ZM97.6456 77.0451C97.6456 81.4906 94.0173 85.1073 89.5576 85.1073H39.8487C39.3096 85.1073 38.8033 85.3646 38.4865 85.7993L26.0936 102.808L19.8643 86.1978C19.6184 85.542 18.9898 85.1073 18.2874 85.1073H11.4551C6.99535 85.1073 3.36709 81.4906 3.36709 77.0451V24.3644C3.36709 19.9189 6.99535 16.3022 11.4551 16.3022H89.5576C94.0173 16.3022 97.6456 19.9189 97.6456 24.3644V77.0451ZM110.633 64.0992C110.633 68.5447 107.005 72.1614 102.545 72.1614H101.013V24.3644C101.013 18.0682 95.874 12.9459 89.5576 12.9459H16.3544V11.4185C16.3544 6.97303 19.9827 3.35634 24.4424 3.35634H102.545C107.005 3.35634 110.633 6.97303 110.633 11.4185V64.0992Z" fill="url(#paint1_linear_17137_3526)"/>
<path d="M102.545 0H24.4424C18.1261 0 12.9873 5.12231 12.9873 11.4185V12.9459H11.4551C5.13871 12.9459 0 18.0682 0 24.3644V77.0451C0 83.3413 5.13871 88.4636 11.4551 88.4636H17.1194L24.0372 106.909C24.2543 107.488 24.773 107.901 25.3873 107.985C25.4633 107.995 25.539 108 25.6144 108C26.1487 108 26.6571 107.746 26.9764 107.308L40.7066 88.4636H89.5576C95.874 88.4636 101.013 83.3413 101.013 77.0451V75.5177H102.545C108.861 75.5177 114 70.3954 114 64.0992V11.4185C114 5.12231 108.861 0 102.545 0ZM97.6456 77.0451C97.6456 81.4906 94.0173 85.1073 89.5576 85.1073H39.8487C39.3096 85.1073 38.8033 85.3646 38.4865 85.7993L26.0936 102.808L19.8643 86.1978C19.6184 85.542 18.9898 85.1073 18.2874 85.1073H11.4551C6.99535 85.1073 3.36709 81.4906 3.36709 77.0451V24.3644C3.36709 19.9189 6.99535 16.3022 11.4551 16.3022H89.5576C94.0173 16.3022 97.6456 19.9189 97.6456 24.3644V77.0451ZM110.633 64.0992C110.633 68.5447 107.005 72.1614 102.545 72.1614H101.013V24.3644C101.013 18.0682 95.874 12.9459 89.5576 12.9459H16.3544V11.4185C16.3544 6.97303 19.9827 3.35634 24.4424 3.35634H102.545C107.005 3.35634 110.633 6.97303 110.633 11.4185V64.0992Z" fill="url(#paint2_linear_17137_3526)"/>
<defs>
<linearGradient id="paint0_linear_17137_3526" x1="52.5825" y1="118.412" x2="-84.5031" y2="-30.1142" gradientUnits="userSpaceOnUse">
<stop offset="0.0647506" stop-color="#FEBDAB" stop-opacity="0.74"/>
<stop offset="0.225114" stop-color="#F3A9F8" stop-opacity="0.66"/>
<stop offset="0.45571" stop-color="#E0D8F0"/>
<stop offset="0.823271" stop-color="#EAF7FE"/>
<stop offset="0.991019" stop-color="#EAF7FE"/>
</linearGradient>
<linearGradient id="paint1_linear_17137_3526" x1="52.5825" y1="118.412" x2="-84.5031" y2="-30.1142" gradientUnits="userSpaceOnUse">
<stop offset="0.0647506" stop-color="#FEBDAB" stop-opacity="0.74"/>
<stop offset="0.225114" stop-color="#F3A9F8" stop-opacity="0.66"/>
<stop offset="0.45571" stop-color="#E0D8F0"/>
<stop offset="0.823271" stop-color="#EAF7FE"/>
<stop offset="0.991019" stop-color="#EAF7FE"/>
</linearGradient>
<linearGradient id="paint2_linear_17137_3526" x1="52.5825" y1="118.412" x2="-84.5031" y2="-30.1142" gradientUnits="userSpaceOnUse">
<stop offset="0.0647506" stop-color="#FED290" stop-opacity="0.7"/>
<stop offset="0.614306" stop-color="#FEBDAB"/>
<stop offset="0.65625" stop-color="#FED290" stop-opacity="0.7"/>
</linearGradient>
</defs>
</svg>
